<?xml version="1.0" standalone="no"?>
<!DOCTYPE svg PUBLIC "-//W3C//DTD SVG 20010904//EN"
 "http://www.w3.org/TR/2001/REC-SVG-20010904/DTD/svg10.dtd">
<svg version="1.0" xmlns="http://www.w3.org/2000/svg"
 width="1081.000000pt" height="1462.000000pt" viewBox="0 0 1081.000000 1462.000000"
 preserveAspectRatio="xMidYMid meet">

<g transform="translate(0.000000,1462.000000) scale(0.100000,-0.100000)"
fill="#000000" stroke="none">
<path d="M1024 14600 c-294 -25 -575 -174 -764 -408 -88 -109 -180 -289 -218
-427 l-27 -100 0 -6360 0 -6360 26 -96 c58 -208 151 -371 291 -512 160 -161
329 -255 566 -314 62 -16 377 -17 4442 -21 3175 -2 4402 0 4474 8 175 20 345
82 496 182 82 54 206 172 271 257 66 87 152 262 186 381 l28 95 3 4845 2 4845
-1997 1997 -1998 1998 -2845 -1 c-1565 -1 -2886 -5 -2936 -9z m5336 -2029 c0
-1530 -2 -1475 59 -1655 135 -395 489 -687 905 -745 52 -7 531 -11 1462 -11
l1384 0 0 -4538 c0 -3216 -3 -4556 -11 -4598 -32 -176 -160 -315 -338 -368
-50 -15 -434 -16 -4417 -16 -4307 0 -4363 0 -4425 20 -184 56 -308 209 -329
405 -7 59 -9 2242 -8 6300 l3 6210 21 62 c12 34 33 82 47 105 34 58 122 140
185 172 115 58 -71 55 2810 55 l2652 1 0 -1399z m2000 -416 l1355 -1355 -1185
2 -1185 3 -78 37 c-145 70 -244 204 -267 363 -11 82 -14 2305 -2 2305 4 0 617
-610 1362 -1355z"/>
<path d="M3210 7441 c-139 -45 -229 -121 -291 -246 -38 -76 -42 -93 -47 -178
-7 -147 36 -266 132 -362 68 -69 144 -111 235 -131 253 -57 499 96 566 351 63
244 -93 505 -340 570 -78 20 -186 18 -255 -4z"/>
<path d="M4450 6985 l0 -315 1750 0 1750 0 0 315 0 315 -1750 0 -1750 0 0
-315z"/>
<path d="M3198 5851 c-108 -35 -212 -121 -270 -221 -82 -141 -77 -344 12 -483
70 -111 195 -194 329 -217 145 -26 297 25 409 136 234 234 166 619 -135 762
-73 34 -85 37 -183 39 -81 2 -118 -1 -162 -16z"/>
<path d="M4457 5713 c-4 -3 -7 -147 -7 -320 l0 -313 1750 0 1750 0 -2 318 -3
317 -1741 3 c-957 1 -1744 -1 -1747 -5z"/>
<path d="M3238 4274 c-371 -89 -496 -548 -220 -806 103 -97 202 -132 351 -126
86 3 105 7 174 41 301 142 369 527 134 761 -72 73 -142 112 -236 132 -81 17
-129 17 -203 -2z"/>
<path d="M4452 3813 l3 -318 1745 0 1745 0 3 318 2 317 -1750 0 -1750 0 2
-317z"/>
</g>
</svg>
